#!OML:ASF F:\VICON\USERDATA\INSTALL\Justin_Nancy\Justin_Nancy.ASF
:FULLY-SPECIFIED
:DEGREES
111
root 0.526671 15.8402 8.20806 -3.06608 52.5712 -9.12167
lowerback 14.1251 -2.16326 -3.21848
upperback 1.66789 -2.77237 7.27349
thorax -5.62222 -1.17471 10.2408
lowerneck -13.9952 -2.55736 -5.51251
upperneck 17.8624 -2.66239 2.22257
head 7.94015 -1.39834 1.35876
rclavicle -1.71949e-013 -8.11041e-014
rhumerus -45.1473 22.5834 -79.8469
rradius 95.0361
rwrist -13.4659
rhand -12.0709 28.3767
rfingers 7.12502
rthumb 13.9887 -1.13261
lclavicle -1.71949e-013 -8.11041e-014
lhumerus -36.1276 -7.0117 79.1598
lradius 130.886
lwrist 37.8076
lhand -23.8276 7.60292
lfingers 7.12502
lthumb 2.64389 37.5663
rfemur -42.6706 4.66622 0.42523
rtibia 62.097
rfoot -11.8342 7.73555
rtoes -15.1409
lfemur 1.88372 8.47587 -43.5239
ltibia 28.5757
lfoot -4.53069 -7.44472
ltoes 17.9793
112
root 0.873745 15.8923 8.32458 -2.96853 52.5469 -9.28874
lowerback 14.1173 -2.43177 -2.69972
upperback 1.60647 -3.04634 7.2629
thorax -5.65899 -1.31851 9.96981
lowerneck -14.087 -1.93662 -4.94665
upperneck 17.6881 -1.8219 1.66485
head 7.85254 -1.01481 1.17247
rclavicle 3.73715e-014 -4.77083e-015
rhumerus -44.983 22.6816 -79.9849
rradius 96.1499
rwrist -15.895
rhand -10.0733 27.7357
rfingers 7.12502
rthumb 15.913 -1.6305
lclavicle 3.73715e-014 -4.77083e-015
lhumerus -37.5227 -9.96556 80.8579
lradius 129.775
lwrist 34.2053
lhand -22.7413 6.37751
lfingers 7.12502
lthumb 3.69291 36.3253
rfemur -43.5234 2.79529 2.029
rtibia 59.6863
rfoot -11.5685 9.28117
rtoes -21.2573
lfemur 2.60602 7.24772 -43.5919
ltibia 28.1986
lfoot 0.276667 -9.67149
ltoes 16.5323
113
root 1.2256 15.9531 8.44225 -3.02312 52.4882 -9.55599
lowerback 14.0812 -2.58426 -2.24189
upperback 1.63533 -3.16692 7.37717
thorax -5.60477 -1.38821 9.8432
lowerneck -14.0001 -1.442 -4.7472
upperneck 17.2919 -1.1179 1.27159
head 7.67809 -0.702512 1.08526
rclavicle -1.59028e-014 4.29375e-014
rhumerus -44.722 23.0495 -80.2196
rradius 96.4273
rwrist -14.3623
rhand -11.0037 27.8216
rfingers 7.12502
rthumb 15.017 -1.6138
lclavicle -1.59028e-014 4.29375e-014
lhumerus -39.0194 -12.7295 83.0697
lradius 128.253
lwrist 30.6803
lhand -22.0449 6.0253
lfingers 7.12502
lthumb 4.36539 35.9603
rfemur -44.206 1.32631 3.60637
rtibia 57.4327
rfoot -10.4044 11.5799
rtoes -21.6652
lfemur 2.91622 5.98606 -43.544
ltibia 28.4149
lfoot 6.30366 -12.7597
ltoes 14.5225
114
root 1.56617 16.0033 8.56289 -3.5674 52.4911 -10.3486
lowerback 14.2422 -2.7737 -1.49763
upperback 1.60206 -3.28205 7.49216
thorax -5.74558 -1.45071 9.56868
lowerneck -14.0614 -1.01156 -4.69249
upperneck 17.2399 -0.521226 1.18424
head 7.65215 -0.422943 1.1109
rclavicle -3.37934e-015 -9.14409e-014
rhumerus -44.3808 23.1889 -80.4537
rradius 96.7378
rwrist -14.0392
rhand -8.68282 27.9031
rfingers 7.12502
rthumb 17.2517 -1.35119
lclavicle -3.37934e-015 -9.14409e-014
lhumerus -40.901 -15.1536 85.2066
lradius 126.467
lwrist 27.7185
lhand -21.6956 6.46786
lfingers 7.12502
lthumb 4.7027 36.3957
rfemur -44.5732 -0.180402 5.82847
rtibia 55.695
rfoot -10.2321 12.9004
rtoes -24.209
lfemur 2.82612 4.37218 -43.1718
ltibia 29.2918
lfoot 13.7302 -15.4539
ltoes 12.0011
115
root 1.89467 16.0462 8.68828 -3.87368 52.6977 -10.7431
lowerback 14.4853 -2.98592 -1.06049
upperback 1.62588 -3.48075 7.52421
thorax -5.84524 -1.55287 9.4022
lowerneck -14.2665 -0.695621 -4.68712
upperneck 17.1214 -0.0690152 1.11805
head 7.63519 -0.212824 1.13563
rclavicle -3.3197e-014 9.46215e-014
rhumerus -43.956 23.2863 -80.7675
rradius 97.304
rwrist -15.0446
rhand -6.14515 28.1382
rfingers 7.12502
rthumb 19.6928 -0.884328
lclavicle -3.3197e-014 9.46215e-014
lhumerus -42.5859 -17.0504 87.3192
lradius 124.17
lwrist 25.5795
lhand -21.435 6.34632
lfingers 7.12502
lthumb 4.95435 36.2684
rfemur -44.6269 -1.57165 7.4673
rtibia 54.4418
rfoot -9.41357 14.6098
rtoes -24.4165
lfemur 2.35476 2.82133 -42.9621
ltibia 30.9578
lfoot 21.3379 -17.0647
ltoes 10.6237
116
root 2.21624 16.0692 8.82265 -3.37511 53.0232 -10.1039
lowerback 14.5647 -3.08548 -1.36034
upperback 1.77693 -3.67721 7.38305
thorax -5.68358 -1.65535 9.45094
lowerneck -14.662 -0.428112 -4.70505
upperneck 16.9196 0.312838 1.13787
head 7.62627 -0.0288007 1.18509
rclavicle -9.93923e-016 1.03368e-014
rhumerus -43.331 23.2568 -81.2318
rradius 97.8667
rwrist -16.0538
rhand -6.08482 28.5333
rfingers 7.12502
rthumb 19.7508 -0.483284
lclavicle -9.93923e-016 1.03368e-014
lhumerus -43.8748 -18.7112 89.4896
lradius 121.313
lwrist 24.2625
lhand -21.6345 6.26902
lfingers 7.12502
lthumb 4.76167 36.1955
rfemur -44.7057 -3.08344 8.40308
rtibia 53.6498
rfoot -9.28964 15.8593
rtoes -28.319
lfemur 1.45476 1.7612 -43.3029
ltibia 33.5856
lfoot 27.4955 -17.2066
ltoes 14.1835
117
root 2.53778 16.0971 8.95437 -2.88144 53.4384 -9.34564
lowerback 14.7335 -3.11128 -1.69059
upperback 1.87686 -3.78695 7.10966
thorax -5.64728 -1.71064 9.36526
lowerneck -14.8368 -0.282673 -4.67654
upperneck 16.7053 0.467855 1.35398
head 7.57994 0.0695277 1.26711
rclavicle 1.68371e-013 -1.66979e-014
rhumerus -43.0432 23.1503 -82.1732
rradius 98.3607
rwrist -16.0752
rhand -7.62217 28.7057
rfingers 7.12502
rthumb 18.2724 -0.45611
lclavicle 1.68371e-013 -1.66979e-014
lhumerus -45.1176 -20.1576 91.5548
lradius 118.017
lwrist 23.8643
lhand -21.4307 6.10988
lfingers 7.12502
lthumb 4.95852 36.0319
rfemur -44.4292 -4.07375 8.88108
rtibia 53.1043
rfoot -9.14337 16.411
rtoes -31.1259
lfemur 0.210806 1.43595 -43.5464
ltibia 37.2294
lfoot 32.2932 -17.0618
ltoes 26.7341
118
root 2.85764 16.1413 9.07034 -2.75362 53.7966 -8.87463
lowerback 15.0828 -3.09111 -1.77676
upperback 2.03663 -3.79302 6.80912
thorax -5.68203 -1.71647 9.10061
lowerneck -14.9779 -0.229648 -4.58709
upperneck 16.4628 0.487326 1.53777
head 7.52293 0.104274 1.31354
rclavicle -5.32743e-014 2.38542e-015
rhumerus -42.8449 23.0401 -83.4171
rradius 98.8178
rwrist -14.784
rhand -9.27993 28.508
rfingers 7.12502
rthumb 16.677 -0.795641
lclavicle -5.32743e-014 2.38542e-015
lhumerus -46.1318 -21.2247 93.3821
lradius 114.47
lwrist 24.3083
lhand -21.4462 6.06523
lfingers 7.12502
lthumb 4.94352 35.9876
rfemur -43.5861 -3.72297 8.57733
rtibia 52.618
rfoot -6.75836 17.1032
rtoes -25.0808
lfemur -1.29791 1.42209 -43.5792
ltibia 41.7534
lfoot 28.1267 -17.5797
ltoes 18.583
119
root 3.16791 16.1693 9.19422 -3.12043 54.0637 -8.88347
lowerback 15.4412 -3.06425 -1.76456
upperback 2.32268 -3.7647 6.63695
thorax -5.58882 -1.7115 8.90868
lowerneck -15.1092 -0.180005 -4.74857
upperneck 15.9481 0.54527 1.78853
head 7.37316 0.150574 1.4247
rclavicle 1.07344e-013 -3.4191e-014
rhumerus -42.4317 23.0958 -84.6177
rradius 99.2952
rwrist -13.6165
rhand -10.2479 28.9508
rfingers 7.12502
rthumb 15.7449 -0.428757
lclavicle 1.07344e-013 -3.4191e-014
lhumerus -46.7217 -21.7342 94.9939
lradius 110.638
lwrist 25.2962
lhand -21.8239 6.05593
lfingers 7.12502
lthumb 4.57881 35.9864
rfemur -42.3656 -2.77271 8.48761
rtibia 51.9878
rfoot -5.52992 16.7613
rtoes -24.4275
lfemur -2.98111 1.47386 -43.2307
ltibia 46.9794
lfoot 23.0606 -15.621
ltoes 11.0959
120
root 3.47341 16.1878 9.34529 -3.76711 54.315 -9.16597
lowerback 15.6792 -2.9177 -1.70467
upperback 2.65882 -3.57913 6.38957
thorax -5.40877 -1.63411 8.56231
lowerneck -15.1849 -0.242447 -4.67582
upperneck 15.3815 0.389551 2.07315
head 7.20489 0.112171 1.48501
rclavicle 3.95581e-014 1.98785e-014
rhumerus -42.0806 22.6077 -86.0213
rradius 100.115
rwrist -13.5381
rhand -8.57823 28.978
rfingers 7.12502
rthumb 17.3524 -0.267409
lclavicle 3.95581e-014 1.98785e-014
lhumerus -48.6165 -22.9519 96.1684
lradius 108.496
lwrist 26.7264
lhand -22.3514 6.2999
lfingers 7.12502
lthumb 4.06947 36.2408
rfemur -40.8265 -1.47572 8.47471
rtibia 51.3
rfoot -3.24634 15.9983
rtoes -19.2217
lfemur -4.88387 1.82661 -42.4159
ltibia 52.5748
lfoot 18.8377 -12.4459
ltoes 6.27484
121
root 3.7837 16.2133 9.50772 -4.88504 54.412 -9.93229
lowerback 15.861 -2.6381 -1.60357
upperback 3.06775 -3.19613 6.33553
thorax -5.13842 -1.46015 8.36168
lowerneck -15.2129 -0.365331 -4.68943
upperneck 14.8036 0.199161 2.21225
head 7.02793 0.0377195 1.50808
rclavicle 8.15017e-015 -1.27222e-014
rhumerus -41.6323 22.399 -87.3012
rradius 101.15
rwrist -13.6291
rhand -9.62404 27.8285
rfingers 7.12502
rthumb 16.3457 -1.5027
lclavicle 8.15017e-015 -1.27222e-014
lhumerus -49.3123 -23.2997 97.3666
lradius 105.08
lwrist 27.1567
lhand -21.7883 6.2638
lfingers 7.12502
lthumb 4.61318 36.1936
rfemur -39.0091 0.385521 8.65078
rtibia 50.535
rfoot -1.11267 14.9557
rtoes -7.53273
lfemur -7.06693 2.72928 -41.0192
ltibia 58.205
lfoot 16.0107 -9.80169
ltoes 2.72139
122
root 4.08773 16.216 9.659 -5.91989 54.7677 -10.6383
lowerback 16.0547 -2.38755 -1.53679
upperback 3.42063 -2.84302 6.43054
thorax -4.91753 -1.29488 8.35661
lowerneck -15.0892 -0.550356 -4.81743
upperneck 14.2547 -0.0168268 2.13498
head 6.83717 -0.0757873 1.47715
rclavicle -3.3197e-014 5.725e-014
rhumerus -41.0513 22.6259 -88.1851
rradius 102.312
rwrist -14.3592
rhand -11.5667 27.3098
rfingers 7.12502
rthumb 14.4746 -2.1654
lclavicle -3.3197e-014 5.725e-014
lhumerus -49.1798 -23.0425 98.5624
lradius 101.012
lwrist 26.979
lhand -20.6705 6.48954
lfingers 7.12502
lthumb 5.69245 36.3931
rfemur -36.544 2.35298 8.36567
rtibia 50.0291
rfoot -4.65337 14.4537
rtoes -10.2132
lfemur -9.4823 3.51351 -39.6386
ltibia 63.6977
lfoot 14.3834 -8.29791
ltoes 2.2427
123
root 4.39158 16.1959 9.78874 -6.09725 55.6815 -10.5548
lowerback 16.3322 -2.1561 -1.48124
upperback 3.47677 -2.5235 6.3389
thorax -5.06358 -1.13118 8.17712
lowerneck -14.6702 -0.902698 -4.90087
upperneck 13.6599 -0.475335 2.00174
head 6.59112 -0.308469 1.39751
rclavicle -8.82604e-014 -8.74653e-015
rhumerus -40.5061 22.7341 -88.7865
rradius 103.585
rwrist -15.8899
rhand -11.926 27.2784
rfingers 7.12502
rthumb 14.1283 -2.2212
lclavicle -8.82604e-014 -8.74653e-015
lhumerus -49.3387 -22.9594 99.7266
lradius 97.2313
lwrist 26.4852
lhand -19.9333 6.06412
lfingers 7.12502
lthumb 6.40421 35.9473
rfemur -34.1431 3.09088 7.67226
rtibia 49.6241
rfoot -8.7718 12.6932
rtoes -20.9033
lfemur -12.0681 3.68199 -38.8237
ltibia 68.9149
lfoot 13.2102 -7.22268
ltoes 5.75981
124
root 4.69031 16.1691 9.92513 -5.85436 56.4497 -10.1876
lowerback 16.5938 -1.87159 -1.2837
upperback 3.42904 -2.13122 5.98222
thorax -5.33828 -0.932336 7.60689
lowerneck -14.7828 -1.30753 -5.20238
upperneck 13.534 -1.01324 2.36753
head 6.59262 -0.550582 1.51067
rclavicle 3.37934e-015 3.18055e-014
rhumerus -39.9981 22.839 -89.7466
rradius 104.939
rwrist -16.9423
rhand -11.561 26.873
rfingers 7.12502
rthumb 14.48 -2.60178
lclavicle 3.37934e-015 3.18055e-014
lhumerus -49.2017 -22.7763 100.323
lradius 93.1075
lwrist 25.2831
lhand -20.1964 5.63294
lfingers 7.12502
lthumb 6.15025 35.5237
rfemur -32.0448 3.59591 7.04001
rtibia 49.3273
rfoot -11.6516 11.4663
rtoes -26.9586
lfemur -14.9948 3.90847 -38.0535
ltibia 73.9512
lfoot 11.5672 -6.70853
ltoes 7.05966
